<svg width="1751" height="377" viewBox="0 0 1751 377" fill="none" xmlns="http://www.w3.org/2000/svg">
<g filter="url(#filter0_bd_110_164)">
<path d="M0 50C0 25.1472 20.1472 5 45 5H1657C1681.85 5 1702 25.1472 1702 50V556C1702 580.853 1681.85 601 1657 601H45C20.1472 601 0 580.853 0 556V50Z" fill="#D9D9D9" fill-opacity="0.5" shape-rendering="crispEdges"/>
<path d="M45 5.5H1657C1681.58 5.5 1701.5 25.4233 1701.5 50V556C1701.5 580.577 1681.58 600.5 1657 600.5H45C20.4233 600.5 0.5 580.577 0.5 556V50C0.5 25.4233 20.4233 5.5 45 5.5Z" stroke="black" shape-rendering="crispEdges"/>
</g>
<defs>
<filter id="filter0_bd_110_164" x="-500" y="-495" width="2702" height="1596" filterUnits="userSpaceOnUse" color-interpolation-filters="sRGB">
<feFlood flood-opacity="0" result="BackgroundImageFix"/>
<feGaussianBlur in="BackgroundImageFix" stdDeviation="250"/>
<feComposite in2="SourceAlpha" operator="in" result="effect1_backgroundBlur_110_164"/>
<feColorMatrix in="SourceAlpha" type="matrix" values="0 0 0 0 0 0 0 0 0 0 0 0 0 0 0 0 0 0 127 0" result="hardAlpha"/>
<feOffset dx="40" dy="4"/>
<feGaussianBlur stdDeviation="4.5"/>
<feComposite in2="hardAlpha" operator="out"/>
<feColorMatrix type="matrix" values="0 0 0 0 0 0 0 0 0 0 0 0 0 0 0 0 0 0 0.25 0"/>
<feBlend mode="normal" in2="effect1_backgroundBlur_110_164" result="effect2_dropShadow_110_164"/>
<feBlend mode="normal" in="SourceGraphic" in2="effect2_dropShadow_110_164" result="shape"/>
</filter>
</defs>
</svg>
