<svg width="1768" height="4281" viewBox="0 0 1768 4281" fill="none" xmlns="http://www.w3.org/2000/svg">
<rect x="20" y="20" width="1728" height="1117" fill="#24144C"/>
<mask id="mask0_12_54" style="mask-type:alpha" maskUnits="userSpaceOnUse" x="20" y="20" width="1728" height="1117">
<rect x="20" y="20" width="1728" height="1117" fill="#24144C"/>
</mask>
<g mask="url(#mask0_12_54)">
<g filter="url(#filter0_f_12_54)">
<path fill-rule="evenodd" clip-rule="evenodd" d="M1225.23 -27.7344C1336.07 -28.6819 1448.51 -111.826 1543.89 -55.358C1652.03 8.66027 1718.97 137.707 1716.96 263.376C1714.96 387.736 1642.53 511.635 1533.83 572.048C1439.75 624.343 1332.84 539.184 1225.23 536.686C1122.91 534.31 1015.58 615.162 930.633 558.045C840.01 497.109 822.122 372.547 818.772 263.376C815.297 150.15 819.892 15.9942 911.974 -49.9557C1000.45 -113.326 1116.41 -26.8041 1225.23 -27.7344Z" fill="#6A3C96"/>
<path fill-rule="evenodd" clip-rule="evenodd" d="M1199.08 489.562C1292.2 505.115 1384.36 437.946 1474.39 466.351C1586.23 501.637 1700.12 560.846 1754.39 664.77C1812.23 775.537 1846.5 932.28 1768.8 1030.16C1687.55 1132.5 1511.24 1054.36 1396.07 1116.14C1307.22 1163.79 1297.97 1316.09 1199.08 1335.75C1100.88 1355.26 1000.63 1283.73 935.57 1207.66C876.93 1139.11 904.993 1035.2 870.657 951.789C831.587 856.874 726.632 792.942 722.639 690.384C717.964 570.31 736.911 408.362 847.682 361.672C965.424 312.043 1073.05 468.511 1199.08 489.562Z" fill="#700CCF"/>
<path fill-rule="evenodd" clip-rule="evenodd" d="M383.542 -119.357C505.649 -139.888 640.537 -199.646 740.793 -127.042C846.982 -50.1408 880.294 99.6494 865.778 229.874C852.479 349.185 757.272 433.6 669.197 515.262C585.8 592.586 497.318 676.651 383.542 676.999C269.534 677.348 180.948 593.131 96.1332 517.014C4.24869 434.553 -122.207 353.042 -114.679 229.874C-107.236 108.111 29.2589 45.8509 129.215 -24.2143C206.251 -78.2132 290.741 -103.754 383.542 -119.357Z" fill="#A23671"/>
<path fill-rule="evenodd" clip-rule="evenodd" d="M543.577 424.146C642.156 419.115 684.54 545.719 759.24 610.243C845.719 684.94 989.946 713.188 1008.71 825.912C1028.24 943.216 918.464 1033.92 845.384 1127.73C755.47 1243.15 688.234 1401.08 543.577 1423C389.25 1446.37 220.731 1365.27 134.021 1235.48C55.1536 1117.43 97.1183 959.682 144.675 825.912C177.427 733.789 279.97 700.567 348.856 631.186C418.249 561.295 445.218 429.165 543.577 424.146Z" fill="#BA2396"/>
</g>
</g>
<rect x="20" y="1371" width="1728" height="1117" fill="#24144C"/>
<mask id="mask1_12_54" style="mask-type:alpha" maskUnits="userSpaceOnUse" x="20" y="1371" width="1728" height="1117">
<rect x="20" y="1371" width="1728" height="1117" fill="#24144C"/>
</mask>
<g mask="url(#mask1_12_54)">
<g filter="url(#filter1_f_12_54)">
<path fill-rule="evenodd" clip-rule="evenodd" d="M1256.23 1188.27C1367.07 1187.32 1479.51 1104.17 1574.89 1160.64C1683.03 1224.66 1749.97 1353.71 1747.96 1479.38C1745.96 1603.74 1673.53 1727.63 1564.83 1788.05C1470.75 1840.34 1363.84 1755.18 1256.23 1752.69C1153.91 1750.31 1046.58 1831.16 961.633 1774.05C871.01 1713.11 853.122 1588.55 849.772 1479.38C846.297 1366.15 850.892 1231.99 942.974 1166.04C1031.45 1102.67 1147.41 1189.2 1256.23 1188.27Z" fill="#6A3C96"/>
<path fill-rule="evenodd" clip-rule="evenodd" d="M994.08 1966.56C1087.2 1982.12 1179.36 1914.95 1269.39 1943.35C1381.23 1978.64 1495.12 2037.85 1549.39 2141.77C1607.23 2252.54 1641.5 2409.28 1563.8 2507.16C1482.55 2609.5 1306.24 2531.36 1191.07 2593.14C1102.22 2640.79 1092.97 2793.09 994.08 2812.75C895.881 2832.26 795.634 2760.73 730.57 2684.66C671.93 2616.11 699.993 2512.2 665.657 2428.79C626.587 2333.87 521.632 2269.94 517.639 2167.38C512.964 2047.31 531.911 1885.36 642.682 1838.67C760.424 1789.04 868.046 1945.51 994.08 1966.56Z" fill="#700CCF"/>
<path fill-rule="evenodd" clip-rule="evenodd" d="M346.542 993.643C468.649 973.112 603.537 913.354 703.793 985.958C809.982 1062.86 843.294 1212.65 828.778 1342.87C815.479 1462.18 720.272 1546.6 632.197 1628.26C548.8 1705.59 460.318 1789.65 346.542 1790C232.534 1790.35 143.948 1706.13 59.1332 1630.01C-32.7513 1547.55 -159.207 1466.04 -151.679 1342.87C-144.236 1221.11 -7.74106 1158.85 92.2153 1088.79C169.251 1034.79 253.741 1009.25 346.542 993.643Z" fill="#A23671"/>
<path fill-rule="evenodd" clip-rule="evenodd" d="M296.577 1817.15C395.156 1812.11 437.54 1938.72 512.24 2003.24C598.719 2077.94 742.946 2106.19 761.711 2218.91C781.238 2336.22 671.464 2426.92 598.384 2520.73C508.47 2636.15 441.234 2794.08 296.577 2816C142.25 2839.37 -26.2685 2758.27 -112.979 2628.48C-191.846 2510.43 -149.882 2352.68 -102.325 2218.91C-69.5734 2126.79 32.9696 2093.57 101.856 2024.19C171.249 1954.29 198.218 1822.17 296.577 1817.15Z" fill="#BA2396"/>
</g>
</g>
<rect x="20" y="2746" width="1728" height="1117" fill="#24144C"/>
<mask id="mask2_12_54" style="mask-type:alpha" maskUnits="userSpaceOnUse" x="20" y="2746" width="1728" height="1117">
<rect x="20" y="2746" width="1728" height="1117" fill="#24144C"/>
</mask>
<g mask="url(#mask2_12_54)">
<g filter="url(#filter2_f_12_54)">
<path fill-rule="evenodd" clip-rule="evenodd" d="M1368.23 2688.27C1479.07 2687.32 1591.51 2604.17 1686.89 2660.64C1795.03 2724.66 1861.97 2853.71 1859.96 2979.38C1857.96 3103.74 1785.53 3227.63 1676.83 3288.05C1582.75 3340.34 1475.84 3255.18 1368.23 3252.69C1265.91 3250.31 1158.58 3331.16 1073.63 3274.05C983.01 3213.11 965.122 3088.55 961.772 2979.38C958.297 2866.15 962.892 2731.99 1054.97 2666.04C1143.45 2602.67 1259.41 2689.2 1368.23 2688.27Z" fill="#6A3C96"/>
<path fill-rule="evenodd" clip-rule="evenodd" d="M872.942 3369.39C966.058 3384.94 1058.23 3317.77 1148.25 3346.18C1260.09 3381.47 1373.99 3440.67 1428.25 3544.6C1486.09 3655.37 1520.36 3812.11 1442.66 3909.98C1361.41 4012.33 1185.1 3934.19 1069.93 3995.97C981.085 4043.62 971.834 4195.92 872.942 4215.58C774.742 4235.09 674.495 4163.56 609.431 4087.49C550.791 4018.93 578.854 3915.03 544.519 3831.62C505.448 3736.7 400.493 3672.77 396.5 3570.21C391.825 3450.14 410.773 3288.19 521.544 3241.5C639.286 3191.87 746.907 3348.34 872.942 3369.39Z" fill="#700CCF"/>
<path fill-rule="evenodd" clip-rule="evenodd" d="M614.72 2372.15C736.827 2351.62 871.715 2291.86 971.971 2364.46C1078.16 2441.36 1111.47 2591.15 1096.96 2721.38C1083.66 2840.69 988.45 2925.1 900.374 3006.77C816.978 3084.09 728.496 3168.16 614.72 3168.5C500.711 3168.85 412.125 3084.64 327.311 3008.52C235.426 2926.06 108.97 2844.55 116.499 2721.38C123.942 2599.62 260.437 2537.36 360.393 2467.29C437.429 2413.29 521.919 2387.75 614.72 2372.15Z" fill="#A23671"/>
<path fill-rule="evenodd" clip-rule="evenodd" d="M119.577 2898.15C218.156 2893.11 260.54 3019.72 335.24 3084.24C421.719 3158.94 565.946 3187.19 584.711 3299.91C604.238 3417.22 494.464 3507.92 421.384 3601.73C331.47 3717.15 264.234 3875.08 119.577 3897C-34.7501 3920.37 -203.269 3839.27 -289.979 3709.48C-368.846 3591.43 -326.882 3433.68 -279.325 3299.91C-246.573 3207.79 -144.03 3174.57 -75.1436 3105.19C-5.75113 3035.29 21.2175 2903.17 119.577 2898.15Z" fill="#BA2396"/>
</g>
</g>
<rect x="0.5" y="0.5" width="1767" height="4280" rx="4.5" stroke="#9747FF" stroke-dasharray="10 5"/>
<defs>
<filter id="filter0_f_12_54" x="-515" y="-562" width="2729" height="2389" filterUnits="userSpaceOnUse" color-interpolation-filters="sRGB">
<feFlood flood-opacity="0" result="BackgroundImageFix"/>
<feBlend mode="normal" in="SourceGraphic" in2="BackgroundImageFix" result="shape"/>
<feGaussianBlur stdDeviation="200" result="effect1_foregroundBlur_12_54"/>
</filter>
<filter id="filter1_f_12_54" x="-557" y="551" width="2705" height="2669" filterUnits="userSpaceOnUse" color-interpolation-filters="sRGB">
<feFlood flood-opacity="0" result="BackgroundImageFix"/>
<feBlend mode="normal" in="SourceGraphic" in2="BackgroundImageFix" result="shape"/>
<feGaussianBlur stdDeviation="200" result="effect1_foregroundBlur_12_54"/>
</filter>
<filter id="filter2_f_12_54" x="-734" y="1929.51" width="2994" height="2689.32" filterUnits="userSpaceOnUse" color-interpolation-filters="sRGB">
<feFlood flood-opacity="0" result="BackgroundImageFix"/>
<feBlend mode="normal" in="SourceGraphic" in2="BackgroundImageFix" result="shape"/>
<feGaussianBlur stdDeviation="200" result="effect1_foregroundBlur_12_54"/>
</filter>
</defs>
</svg>
